<?xml version="1.0" encoding="UTF-8"?>
<svg width="49.636mm" height="71.822mm" version="1.1" viewBox="0 0 49.636 71.822" xmlns="http://www.w3.org/2000/svg" xmlns:xlink="http://www.w3.org/1999/xlink">
 <defs>
  <radialGradient id="radialGradient12213" cx="122.66" cy="191.28" r="90.991" gradientTransform="matrix(.99999 -.0041931 .003236 .77175 -.61791 -34.053)" gradientUnits="userSpaceOnUse">
   <stop stop-color="#1eb500" offset="0"/>
   <stop stop-color="#0f2" stop-opacity="0" offset="1"/>
  </radialGradient>
  <filter id="filter12215" x="-.021303" y="-.060606" width="1.0426" height="1.1212" color-interpolation-filters="sRGB">
   <feGaussianBlur stdDeviation="1.6137185"/>
  </filter>
 </defs>
 <g transform="translate(-78.134 -80.055)">
  <g transform="matrix(.26458 0 0 .26458 69.665 77.331)">
   <path d="m53.561 105.15-19.351-22.485c55.471-53.337 140.21-54.505 181.8 1.9819l-18.848 21.728z" fill="url(#radialGradient12213)" filter="url(#filter12215)" style="mix-blend-mode:normal"/>
   <path class="st0" d="m177.81 102.15a13.9 13.9 0 0 1-13.9 13.9 13.9 13.9 0 0 1-13.9-13.9 13.9 13.9 0 0 1 13.9-13.9 13.9 13.9 0 0 1 13.9 13.9z" fill="#39b54a"/>
   <path class="st1" d="m159.04 90.881s-3.7986 6.8988 0.72276 9.8892c3.5932 2.3765 11.703 2.4124 14.857 1.0853 4.2-0.7-9.1086 8.8914-9.1086 8.8914l-11.6-6-2.4-11 4-4.3z" fill="#009245"/>
   <path class="st0" d="m148.21 25.647a10.8 10.8 0 0 1-10.8 10.8 10.8 10.8 0 0 1-10.8-10.8 10.8 10.8 0 0 1 10.8-10.8 10.8 10.8 0 0 1 10.8 10.8z" fill="#39b54a"/>
   <path class="st1" d="m132.97 19.618s-2.551 4.2947 1.1431 8.0033c3.577 3.5909 9.1656 1.053 10.783-0.2189s-6.2848 8.345-6.2848 8.345l-8.8-4.5-1.8-8.3 3.2-5.8z" fill="#009245"/>
   <path class="st2" d="m56.21 130.31c0 18.1-20.7 27.7-20.7 58.5 0 43.5 40.4 78.8 90.3 78.8 49.9 0 90.3-39.6 90.3-78.8 0-33.8-20.7-42.7-22.5-58.5" fill="#999"/>
   <path class="st3" d="m192.61 136.85c-9.4-1.8-32.5-4.6-36.2 5.4-2.9 7.7 11.8 33.5 17.7 39.1 8 7.6 35.9 15 38.9 4.4 2.7-9.5-7.9-46.4-20.4-48.9z" fill="#ccc"/>
   <path class="st8" d="m178.01 102.15a13.9 13.9 0 0 1-13.9 13.9 13.9 13.9 0 0 1-13.9-13.9 13.9 13.9 0 0 1 13.9-13.9 13.9 13.9 0 0 1 13.9 13.9z" fill="none" stroke="#000" stroke-miterlimit="10" stroke-width="7"/>
   <path class="st5" d="m77.81 130.25h123.3c6.6 0 11.9-5.3 11.9-11.9s-5.3-11.9-11.9-11.9h-152c-6.6 0-11.9 5.3-11.9 11.9s5.3 11.9 11.9 11.9h11" fill="#808080"/>
   <path class="st6" d="m38.61 119.75h172.6v9h-172.6z" fill="#5b6066"/>
   <g transform="translate(282.91 -172.55)">
    <path class="st7" d="m-86.5 311.3-2.8-8.5h-137.4s-18 43.2-20.7 58.5c-3.4 19.3 20.8 57.6 24.2 53.7 2.5 5.8 47.5 27 61.9 25.1 21.4-2.8 42.5-7.2 42.5-7.2s3.3-4.9-2.2-7.8c-3.3-1.7-37.5-3.8-61.7-21.9-13.4-10.1-21-56.8-12.3-71.2 15-24.9 108.5-20.7 108.5-20.7" fill="#4d4d4d"/>
    <path class="st6" d="m-86.5 311.3-2.8-8.5h-137.4s-18 43.2-20.7 58.5c-3.4 19.3 20.8 57.6 24.2 53.7 2.5 5.8 47.5 27 61.9 25.1 21.4-2.8 42.5-7.2 42.5-7.2s3.3-4.9-2.2-7.8c-3.3-1.7-37.5-3.8-61.7-21.9-13.4-10.1-21-56.8-12.3-71.2 15-24.9 108.5-20.7 108.5-20.7" fill="#5b6066"/>
   </g>
   <g stroke="#000" stroke-miterlimit="10">
    <g stroke-width="7">
     <path class="st8" d="m56.21 130.25c0 18.1-20.7 27.7-20.7 58.5 0 43.5 40.4 78.8 90.3 78.8 49.9 0 90.3-39.6 90.3-78.8 0-33.8-20.7-42.7-22.5-58.5" fill="none"/>
     <path class="st8" d="m75.81 130.25h125.3c6.6 0 11.9-5.3 11.9-11.9s-5.3-11.9-11.9-11.9h-152c-6.6 0-11.9 5.3-11.9 11.9s5.3 11.9 11.9 11.9h11" fill="none"/>
     <path class="st9" transform="translate(282.91 -172.55)" d="m-206.4 427.4-16.8-12.3-14.1 33.1 7.5 2.6z" fill="#5b6066" stroke-linejoin="round"/>
    </g>
    <path class="st10" transform="translate(282.91 -172.55)" d="m-108.7 427.4 16.8-12.3 14.1 33.1-7.5 2.6z" fill="#808080" stroke-linejoin="round" stroke-width="6.9997"/>
   </g>
   <path class="st0" d="m191.91 60.147a13.9 13.9 0 0 1-13.9 13.9 13.9 13.9 0 0 1-13.9-13.9 13.9 13.9 0 0 1 13.9-13.9 13.9 13.9 0 0 1 13.9 13.9z" fill="#39b54a"/>
   <g fill="none" stroke="#000" stroke-miterlimit="10" stroke-width="7">
    <path class="st8" d="m144.71 33.547 19.4 17"/>
    <path class="st8" d="m168.01 88.247 6.2-14.7"/>
    <path class="st8" d="m164.11 65.147-30.7 25.4"/>
   </g>
   <path class="st0" d="m139.81 106.55c0-13.3-13-27.5-26.3-27.6-17.5 0-24.3 8-27.6 14.2 0 0-3.6-3.3-9.7-3.1-10.1 0.2-16.5 5.8-16.5 15.9v59.2c0 3.8 2.9 7.1 6.7 7.2 3.9 0.1 7.1-3 7.1-6.9v-52.4c0-3.7 3-6.7 6.7-6.7z" fill="#39b54a"/>
   <g fill="#abffae">
    <path class="st13" d="m125.61 92.847c-0.8 1.9-4.3 3.2-7.9 1.7s-5.9-4.3-5.1-6.1 4.3-3.2 7.9-1.7 5.9 4.2 5.1 6.1z" opacity=".48"/>
    <path class="st13" transform="rotate(-67.338)" d="m22.923 187.63a2.4 4.5 0 0 1-2.4 4.5 2.4 4.5 0 0 1-2.4-4.5 2.4 4.5 0 0 1 2.4-4.5 2.4 4.5 0 0 1 2.4 4.5z" opacity=".48"/>
    <path class="st13" transform="rotate(-67.338)" d="m-21.242 190.67a2.4 4.5 0 0 1-2.4 4.5 2.4 4.5 0 0 1-2.4-4.5 2.4 4.5 0 0 1 2.4-4.5 2.4 4.5 0 0 1 2.4 4.5z" opacity=".48"/>
    <path class="st13" transform="rotate(-80.718)" d="m-82.135 91.631a2 5.6 0 0 1-2 5.6 2 5.6 0 0 1-2-5.6 2 5.6 0 0 1 2-5.6 2 5.6 0 0 1 2 5.6z" opacity=".48"/>
    <path class="st13" transform="rotate(-67.338)" d="m35.707 136.9a1.6 3 0 0 1-1.6 3 1.6 3 0 0 1-1.6-3 1.6 3 0 0 1 1.6-3 1.6 3 0 0 1 1.6 3z" opacity=".48"/>
   </g>
   <path class="st14" d="m205.11 111.75c0 1.1 1 2-11.2 2s-33.2-0.9-33.2-2 21-2 33.2-2 11.2 0.9 11.2 2z" fill="#fff" opacity=".41"/>
   <path class="st8" d="m148.21 25.647a10.8 10.8 0 0 1-10.8 10.8 10.8 10.8 0 0 1-10.8-10.8 10.8 10.8 0 0 1 10.8-10.8 10.8 10.8 0 0 1 10.8 10.8z" fill="none" stroke="#000" stroke-miterlimit="10" stroke-width="7"/>
   <path class="st1" d="m171.99 51.469s-3.178 7.2776 1.723 12.179c3.4169 3.4169 10.164 2.8729 14.43 0.50228 3.7218-2.0683-9.1302 10.498-9.1302 10.498l-11.6-6-2.4-11 4.2-7.6z" fill="#009245"/>
   <path class="st8" d="m191.91 60.147a13.9 13.9 0 0 1-13.9 13.9 13.9 13.9 0 0 1-13.9-13.9 13.9 13.9 0 0 1 13.9-13.9 13.9 13.9 0 0 1 13.9 13.9z" fill="none" stroke="#000" stroke-miterlimit="10" stroke-width="7"/>
   <path class="st1" d="m67.357 96.292c-1.2861 1.1254-3.4576 4.0224-2.8904 10.156 0.98339 10.635 0.26954 34.124 0.91142 49.16 0.28187 6.6032-1.6767 10.658 1.6822 13.517-4.0287 0.0732-4.9689-2.5906-7.3501-3.9774v-63z" fill="#009245"/>
   <path d="m86.958 98.828c0.56772 1.2738 0.74996 2.4439 0.95032 4.1193h15.931s-4.6744-0.92984-8.1719-5.5662c-1.5588-2.0664-3.4153-6.3989-1.7606-9.1338-3.8171 2.4095-5.7673 6.548-6.9486 10.581z" fill="#009245"/>
   <path class="st8" d="m139.81 106.55c0-13.3-13-27.5-26.3-27.6-17.5 0-24.3 8-27.6 14.2 0 0-3.6-3.3-9.7-3.1-10.1 0.2-16.5 5.8-16.5 15.9v59.2c0 3.8 2.9 7.1 6.7 7.2 3.9 0.1 7.1-3 7.1-6.9v-52.4c0-3.7 3-6.7 6.7-6.7z" fill="none" stroke="#000" stroke-miterlimit="10" stroke-width="7"/>
   <g class="st11 st12" fill="#39b54a" stroke="#000" stroke-linejoin="round" stroke-width="10" style="paint-order:markers stroke fill" aria-label="kd">
    <path d="m112.39 213.75q0.8776-0.56417 0.8776-1.5044 0.0627-0.94029-0.75223-1.8806l-9.1521-9.779-3.4477 3.5731v4.7014q0 2.0686 0.81491 3.385 0.81492 1.3164 2.194 1.5044h-13.415q1.3791-0.18805 2.194-1.5044t0.81491-3.385v-32.722q0-2.0059-0.81491-3.2596-0.81491-1.3164-2.1313-1.5672l10.343-2.3194v30.591l8.9641-10.845q1.1284-1.5671 0.81492-2.8835-0.25074-1.3164-1.5045-1.8806h15.17q-1.7552 0.37611-4.6387 2.0686-2.8835 1.6925-4.8895 3.7612l-5.3283 5.4536 12.725 13.728q4.1372 4.388 6.9581 4.7641z"/>
    <path d="m157.7 208.86q0 2.0686 0.81491 3.385 0.81492 1.3164 2.194 1.5044h-16.674q-7.8357 0-13.039-3.8865t-5.2029-11.409q0-6.582 4.8895-10.531 4.8895-3.9492 12.913-3.9492h6.7074v-7.8357q0-2.0059-0.81492-3.2596-0.81491-1.3164-2.1313-1.5672l10.343-2.3194v7.1462zm-11.033 2.382q2.0686 0 3.385-0.25074 0.25075-1.2537 0.25075-2.1313v-22.065q-1.3791-0.37611-3.7612-0.37611-5.9551 0-9.4655 3.3223-3.5104 3.2597-3.5104 8.7133 0 6.1432 3.5104 9.4655 3.5731 3.3223 9.5909 3.3223z"/>
   </g>
   <g class="st11 st12" fill="#39b54a" stroke="#39b54a" stroke-linejoin="round" style="paint-order:markers stroke fill" aria-label="kd">
    <path d="m112.39 213.75q0.8776-0.56417 0.8776-1.5044 0.0627-0.94029-0.75223-1.8806l-9.1521-9.779-3.4477 3.5731v4.7014q0 2.0686 0.81491 3.385 0.81492 1.3164 2.194 1.5044h-13.415q1.3791-0.18805 2.194-1.5044t0.81491-3.385v-32.722q0-2.0059-0.81491-3.2596-0.81491-1.3164-2.1313-1.5672l10.343-2.3194v30.591l8.9641-10.845q1.1284-1.5671 0.81492-2.8835-0.25074-1.3164-1.5045-1.8806h15.17q-1.7552 0.37611-4.6387 2.0686-2.8835 1.6925-4.8895 3.7612l-5.3283 5.4536 12.725 13.728q4.1372 4.388 6.9581 4.7641z"/>
    <path d="m157.7 208.86q0 2.0686 0.81491 3.385 0.81492 1.3164 2.194 1.5044h-16.674q-7.8357 0-13.039-3.8865t-5.2029-11.409q0-6.582 4.8895-10.531 4.8895-3.9492 12.913-3.9492h6.7074v-7.8357q0-2.0059-0.81492-3.2596-0.81491-1.3164-2.1313-1.5672l10.343-2.3194v7.1462zm-11.033 2.382q2.0686 0 3.385-0.25074 0.25075-1.2537 0.25075-2.1313v-22.065q-1.3791-0.37611-3.7612-0.37611-5.9551 0-9.4655 3.3223-3.5104 3.2597-3.5104 8.7133 0 6.1432 3.5104 9.4655 3.5731 3.3223 9.5909 3.3223z"/>
   </g>
  </g>
 </g>
</svg>
